<mxfile host="app.diagrams.net" agent="Mozilla/5.0 (Windows NT 10.0; Win64; x64) AppleWebKit/537.36 (KHTML, like Gecko) Chrome/131.0.0.0 Safari/537.36" version="25.0.3">
  <diagram name="Pàgina-1" id="J5MT5u0cnqmtdoeKDXBp">
    <mxGraphModel grid="1" page="1" gridSize="10" guides="1" tooltips="1" connect="1" arrows="1" fold="1" pageScale="1" pageWidth="827" pageHeight="1169" math="0" shadow="0">
      <root>
        <mxCell id="0" />
        <mxCell id="1" parent="0" />
        <mxCell id="TN3qxrfmex0seeHPzY-Y-1" style="rounded=0;orthogonalLoop=1;jettySize=auto;html=1;exitX=1;exitY=0;exitDx=0;exitDy=0;entryX=0;entryY=1;entryDx=0;entryDy=0;" edge="1" parent="1" source="TN3qxrfmex0seeHPzY-Y-3" target="TN3qxrfmex0seeHPzY-Y-13">
          <mxGeometry relative="1" as="geometry" />
        </mxCell>
        <mxCell id="TN3qxrfmex0seeHPzY-Y-2" value="0..1" style="edgeLabel;html=1;align=center;verticalAlign=middle;resizable=0;points=[];" connectable="0" vertex="1" parent="TN3qxrfmex0seeHPzY-Y-1">
          <mxGeometry x="-0.8849" y="2" relative="1" as="geometry">
            <mxPoint x="-22" y="4" as="offset" />
          </mxGeometry>
        </mxCell>
        <mxCell id="TN3qxrfmex0seeHPzY-Y-3" value="Habitacio" style="swimlane;fontStyle=0;align=center;verticalAlign=top;childLayout=stackLayout;horizontal=1;startSize=26;horizontalStack=0;resizeParent=1;resizeLast=0;collapsible=1;marginBottom=0;rounded=0;shadow=0;strokeWidth=1;" vertex="1" parent="1">
          <mxGeometry x="-360" y="720" width="160" height="50" as="geometry">
            <mxRectangle x="230" y="140" width="160" height="26" as="alternateBounds" />
          </mxGeometry>
        </mxCell>
        <mxCell id="TN3qxrfmex0seeHPzY-Y-9" style="rounded=0;orthogonalLoop=1;jettySize=auto;html=1;exitX=1;exitY=0.5;exitDx=0;exitDy=0;entryX=0;entryY=0.5;entryDx=0;entryDy=0;" edge="1" parent="1" source="TN3qxrfmex0seeHPzY-Y-25" target="TN3qxrfmex0seeHPzY-Y-13">
          <mxGeometry relative="1" as="geometry" />
        </mxCell>
        <mxCell id="TN3qxrfmex0seeHPzY-Y-10" value="*" style="edgeLabel;html=1;align=center;verticalAlign=middle;resizable=0;points=[];" connectable="0" vertex="1" parent="TN3qxrfmex0seeHPzY-Y-9">
          <mxGeometry x="-0.8307" relative="1" as="geometry">
            <mxPoint x="-3" y="-11" as="offset" />
          </mxGeometry>
        </mxCell>
        <mxCell id="TN3qxrfmex0seeHPzY-Y-11" style="rounded=0;orthogonalLoop=1;jettySize=auto;html=1;exitX=0.088;exitY=-0.02;exitDx=0;exitDy=0;entryX=1;entryY=1;entryDx=0;entryDy=0;exitPerimeter=0;" edge="1" parent="1" source="TN3qxrfmex0seeHPzY-Y-51" target="TN3qxrfmex0seeHPzY-Y-13">
          <mxGeometry relative="1" as="geometry">
            <mxPoint x="20" y="460" as="targetPoint" />
            <mxPoint x="502" y="931" as="sourcePoint" />
          </mxGeometry>
        </mxCell>
        <mxCell id="TN3qxrfmex0seeHPzY-Y-12" value="*" style="edgeLabel;html=1;align=center;verticalAlign=middle;resizable=0;points=[];" connectable="0" vertex="1" parent="TN3qxrfmex0seeHPzY-Y-11">
          <mxGeometry x="-0.9381" y="-2" relative="1" as="geometry">
            <mxPoint x="16" y="12" as="offset" />
          </mxGeometry>
        </mxCell>
        <mxCell id="TN3qxrfmex0seeHPzY-Y-13" value="" style="rhombus;whiteSpace=wrap;html=1;verticalAlign=top;fontStyle=2;startSize=26;rounded=0;shadow=0;strokeWidth=1;" vertex="1" parent="1">
          <mxGeometry x="-35" y="480" width="30" height="30" as="geometry" />
        </mxCell>
        <mxCell id="TN3qxrfmex0seeHPzY-Y-14" style="edgeStyle=none;curved=1;rounded=0;orthogonalLoop=1;jettySize=auto;html=1;exitX=0.5;exitY=0;exitDx=0;exitDy=0;fontSize=12;startSize=8;endSize=8;dashed=1;entryX=0.5;entryY=1;entryDx=0;entryDy=0;" edge="1" parent="1" source="TN3qxrfmex0seeHPzY-Y-13" target="TN3qxrfmex0seeHPzY-Y-46">
          <mxGeometry relative="1" as="geometry">
            <mxPoint x="20" y="672" as="sourcePoint" />
            <mxPoint x="-39.960000000000036" y="340.6640000000002" as="targetPoint" />
          </mxGeometry>
        </mxCell>
        <mxCell id="TN3qxrfmex0seeHPzY-Y-15" value="Distribució" style="swimlane;fontStyle=0;childLayout=stackLayout;horizontal=1;startSize=30;horizontalStack=0;resizeParent=1;resizeParentMax=0;resizeLast=0;collapsible=1;marginBottom=0;whiteSpace=wrap;html=1;" vertex="1" parent="1">
          <mxGeometry x="300" y="205" width="160" height="122" as="geometry" />
        </mxCell>
        <mxCell id="TN3qxrfmex0seeHPzY-Y-16" value="- nom: String" style="text;align=left;verticalAlign=top;spacingLeft=4;spacingRight=4;overflow=hidden;rotatable=0;points=[[0,0.5],[1,0.5]];portConstraint=eastwest;rounded=0;shadow=0;html=0;" vertex="1" parent="TN3qxrfmex0seeHPzY-Y-15">
          <mxGeometry y="30" width="160" height="30" as="geometry" />
        </mxCell>
        <mxCell id="TN3qxrfmex0seeHPzY-Y-17" value="- estil: String" style="text;align=left;verticalAlign=top;spacingLeft=4;spacingRight=4;overflow=hidden;rotatable=0;points=[[0,0.5],[1,0.5]];portConstraint=eastwest;rounded=0;shadow=0;html=0;" vertex="1" parent="TN3qxrfmex0seeHPzY-Y-15">
          <mxGeometry y="60" width="160" height="30" as="geometry" />
        </mxCell>
        <mxCell id="TN3qxrfmex0seeHPzY-Y-18" value="- visible: bool" style="text;align=left;verticalAlign=top;spacingLeft=4;spacingRight=4;overflow=hidden;rotatable=0;points=[[0,0.5],[1,0.5]];portConstraint=eastwest;rounded=0;shadow=0;html=0;" vertex="1" parent="TN3qxrfmex0seeHPzY-Y-15">
          <mxGeometry y="90" width="160" height="30" as="geometry" />
        </mxCell>
        <mxCell id="TN3qxrfmex0seeHPzY-Y-20" value="&#xa;" style="text;align=left;verticalAlign=top;spacingLeft=4;spacingRight=4;overflow=hidden;rotatable=0;points=[[0,0.5],[1,0.5]];portConstraint=eastwest;rounded=0;shadow=0;html=0;" vertex="1" parent="TN3qxrfmex0seeHPzY-Y-15">
          <mxGeometry y="120" width="160" height="2" as="geometry" />
        </mxCell>
        <mxCell id="TN3qxrfmex0seeHPzY-Y-21" value="" style="group" connectable="0" vertex="1" parent="1">
          <mxGeometry x="-410" y="430" width="200" height="221" as="geometry" />
        </mxCell>
        <mxCell id="TN3qxrfmex0seeHPzY-Y-22" value="Moble" style="swimlane;fontStyle=0;align=center;verticalAlign=top;childLayout=stackLayout;horizontal=1;startSize=26;horizontalStack=0;resizeParent=1;resizeLast=0;collapsible=1;marginBottom=0;rounded=0;shadow=0;strokeWidth=1;" vertex="1" parent="TN3qxrfmex0seeHPzY-Y-21">
          <mxGeometry y="25" width="200" height="135" as="geometry">
            <mxRectangle x="320" y="590" width="160" height="26" as="alternateBounds" />
          </mxGeometry>
        </mxCell>
        <mxCell id="TN3qxrfmex0seeHPzY-Y-23" value="- nom: String&#xa;" style="text;align=left;verticalAlign=top;spacingLeft=4;spacingRight=4;overflow=hidden;rotatable=0;points=[[0,0.5],[1,0.5]];portConstraint=eastwest;rounded=0;shadow=0;html=0;" vertex="1" parent="TN3qxrfmex0seeHPzY-Y-22">
          <mxGeometry y="26" width="200" height="26" as="geometry" />
        </mxCell>
        <mxCell id="TN3qxrfmex0seeHPzY-Y-25" value="- tipus: tMoble" style="text;align=left;verticalAlign=top;spacingLeft=4;spacingRight=4;overflow=hidden;rotatable=0;points=[[0,0.5],[1,0.5]];portConstraint=eastwest;rounded=0;shadow=0;html=0;" vertex="1" parent="TN3qxrfmex0seeHPzY-Y-22">
          <mxGeometry y="52" width="200" height="26" as="geometry" />
        </mxCell>
        <mxCell id="TN3qxrfmex0seeHPzY-Y-27" value="- estil: String" style="text;align=left;verticalAlign=top;spacingLeft=4;spacingRight=4;overflow=hidden;rotatable=0;points=[[0,0.5],[1,0.5]];portConstraint=eastwest;rounded=0;shadow=0;html=0;" vertex="1" parent="TN3qxrfmex0seeHPzY-Y-22">
          <mxGeometry y="78" width="200" height="26" as="geometry" />
        </mxCell>
        <mxCell id="TN3qxrfmex0seeHPzY-Y-28" value="- vertexDelMoble: set(float[3])" style="text;align=left;verticalAlign=top;spacingLeft=4;spacingRight=4;overflow=hidden;rotatable=0;points=[[0,0.5],[1,0.5]];portConstraint=eastwest;rounded=0;shadow=0;html=0;" vertex="1" parent="TN3qxrfmex0seeHPzY-Y-22">
          <mxGeometry y="104" width="200" height="26" as="geometry" />
        </mxCell>
        <mxCell id="TN3qxrfmex0seeHPzY-Y-30" style="rounded=0;orthogonalLoop=1;jettySize=auto;html=1;exitX=0;exitY=0.5;exitDx=0;exitDy=0;entryX=1;entryY=0.5;entryDx=0;entryDy=0;" edge="1" parent="1" source="TN3qxrfmex0seeHPzY-Y-17" target="TN3qxrfmex0seeHPzY-Y-46">
          <mxGeometry relative="1" as="geometry">
            <mxPoint x="81" y="280" as="targetPoint" />
          </mxGeometry>
        </mxCell>
        <mxCell id="TN3qxrfmex0seeHPzY-Y-31" value="*" style="edgeLabel;html=1;align=center;verticalAlign=middle;resizable=0;points=[];" connectable="0" vertex="1" parent="TN3qxrfmex0seeHPzY-Y-30">
          <mxGeometry x="-0.8161" y="-1" relative="1" as="geometry">
            <mxPoint x="13" y="-7" as="offset" />
          </mxGeometry>
        </mxCell>
        <mxCell id="TN3qxrfmex0seeHPzY-Y-32" value="1..*" style="edgeLabel;html=1;align=center;verticalAlign=middle;resizable=0;points=[];" connectable="0" vertex="1" parent="TN3qxrfmex0seeHPzY-Y-30">
          <mxGeometry x="0.8832" y="2" relative="1" as="geometry">
            <mxPoint y="-13" as="offset" />
          </mxGeometry>
        </mxCell>
        <mxCell id="TN3qxrfmex0seeHPzY-Y-33" value="està formada per" style="edgeLabel;html=1;align=center;verticalAlign=middle;resizable=0;points=[];" connectable="0" vertex="1" parent="TN3qxrfmex0seeHPzY-Y-30">
          <mxGeometry x="-0.0405" y="3" relative="1" as="geometry">
            <mxPoint x="-27" y="10" as="offset" />
          </mxGeometry>
        </mxCell>
        <mxCell id="TN3qxrfmex0seeHPzY-Y-34" value="OrientacióAL&#39;Espai" style="swimlane;fontStyle=0;childLayout=stackLayout;horizontal=1;startSize=30;horizontalStack=0;resizeParent=1;resizeParentMax=0;resizeLast=0;collapsible=1;marginBottom=0;whiteSpace=wrap;html=1;" vertex="1" parent="1">
          <mxGeometry x="200" y="490" width="140" height="120" as="geometry" />
        </mxCell>
        <mxCell id="TN3qxrfmex0seeHPzY-Y-35" value="x: float" style="text;strokeColor=none;fillColor=none;align=left;verticalAlign=middle;spacingLeft=4;spacingRight=4;overflow=hidden;points=[[0,0.5],[1,0.5]];portConstraint=eastwest;rotatable=0;whiteSpace=wrap;html=1;" vertex="1" parent="TN3qxrfmex0seeHPzY-Y-34">
          <mxGeometry y="30" width="140" height="30" as="geometry" />
        </mxCell>
        <mxCell id="TN3qxrfmex0seeHPzY-Y-36" value="y: float" style="text;strokeColor=none;fillColor=none;align=left;verticalAlign=middle;spacingLeft=4;spacingRight=4;overflow=hidden;points=[[0,0.5],[1,0.5]];portConstraint=eastwest;rotatable=0;whiteSpace=wrap;html=1;" vertex="1" parent="TN3qxrfmex0seeHPzY-Y-34">
          <mxGeometry y="60" width="140" height="30" as="geometry" />
        </mxCell>
        <mxCell id="TN3qxrfmex0seeHPzY-Y-37" value="z: float" style="text;strokeColor=none;fillColor=none;align=left;verticalAlign=middle;spacingLeft=4;spacingRight=4;overflow=hidden;points=[[0,0.5],[1,0.5]];portConstraint=eastwest;rotatable=0;whiteSpace=wrap;html=1;" vertex="1" parent="TN3qxrfmex0seeHPzY-Y-34">
          <mxGeometry y="90" width="140" height="30" as="geometry" />
        </mxCell>
        <mxCell id="TN3qxrfmex0seeHPzY-Y-38" value="PuntAL&#39;Espai" style="swimlane;fontStyle=0;childLayout=stackLayout;horizontal=1;startSize=30;horizontalStack=0;resizeParent=1;resizeParentMax=0;resizeLast=0;collapsible=1;marginBottom=0;whiteSpace=wrap;html=1;" vertex="1" parent="1">
          <mxGeometry x="-29.999999999999986" y="722" width="140" height="120" as="geometry" />
        </mxCell>
        <mxCell id="TN3qxrfmex0seeHPzY-Y-39" value="x: float" style="text;strokeColor=none;fillColor=none;align=left;verticalAlign=middle;spacingLeft=4;spacingRight=4;overflow=hidden;points=[[0,0.5],[1,0.5]];portConstraint=eastwest;rotatable=0;whiteSpace=wrap;html=1;" vertex="1" parent="TN3qxrfmex0seeHPzY-Y-38">
          <mxGeometry y="30" width="140" height="30" as="geometry" />
        </mxCell>
        <mxCell id="TN3qxrfmex0seeHPzY-Y-40" value="y: float" style="text;strokeColor=none;fillColor=none;align=left;verticalAlign=middle;spacingLeft=4;spacingRight=4;overflow=hidden;points=[[0,0.5],[1,0.5]];portConstraint=eastwest;rotatable=0;whiteSpace=wrap;html=1;" vertex="1" parent="TN3qxrfmex0seeHPzY-Y-38">
          <mxGeometry y="60" width="140" height="30" as="geometry" />
        </mxCell>
        <mxCell id="TN3qxrfmex0seeHPzY-Y-41" value="z: float" style="text;strokeColor=none;fillColor=none;align=left;verticalAlign=middle;spacingLeft=4;spacingRight=4;overflow=hidden;points=[[0,0.5],[1,0.5]];portConstraint=eastwest;rotatable=0;whiteSpace=wrap;html=1;" vertex="1" parent="TN3qxrfmex0seeHPzY-Y-38">
          <mxGeometry y="90" width="140" height="30" as="geometry" />
        </mxCell>
        <mxCell id="TN3qxrfmex0seeHPzY-Y-42" style="rounded=0;orthogonalLoop=1;jettySize=auto;html=1;exitX=0;exitY=0.5;exitDx=0;exitDy=0;entryX=1;entryY=0.5;entryDx=0;entryDy=0;" edge="1" parent="1" source="TN3qxrfmex0seeHPzY-Y-35" target="TN3qxrfmex0seeHPzY-Y-13">
          <mxGeometry relative="1" as="geometry">
            <mxPoint x="30" y="428" as="targetPoint" />
          </mxGeometry>
        </mxCell>
        <mxCell id="TN3qxrfmex0seeHPzY-Y-43" value="*" style="edgeLabel;html=1;align=center;verticalAlign=middle;resizable=0;points=[];" connectable="0" vertex="1" parent="TN3qxrfmex0seeHPzY-Y-42">
          <mxGeometry x="-0.7621" y="2" relative="1" as="geometry">
            <mxPoint y="19" as="offset" />
          </mxGeometry>
        </mxCell>
        <mxCell id="TN3qxrfmex0seeHPzY-Y-44" style="rounded=0;orthogonalLoop=1;jettySize=auto;html=1;entryX=0.5;entryY=1;entryDx=0;entryDy=0;exitX=0.192;exitY=0;exitDx=0;exitDy=0;exitPerimeter=0;" edge="1" parent="1" source="TN3qxrfmex0seeHPzY-Y-38" target="TN3qxrfmex0seeHPzY-Y-13">
          <mxGeometry relative="1" as="geometry">
            <mxPoint x="-20" y="710" as="targetPoint" />
            <mxPoint x="34" y="730" as="sourcePoint" />
          </mxGeometry>
        </mxCell>
        <mxCell id="TN3qxrfmex0seeHPzY-Y-45" value="*" style="edgeLabel;html=1;align=center;verticalAlign=middle;resizable=0;points=[];" connectable="0" vertex="1" parent="TN3qxrfmex0seeHPzY-Y-44">
          <mxGeometry x="-0.7293" y="3" relative="1" as="geometry">
            <mxPoint x="-3" y="19" as="offset" />
          </mxGeometry>
        </mxCell>
        <mxCell id="TN3qxrfmex0seeHPzY-Y-46" value="MobleCol·locat" style="swimlane;fontStyle=0;childLayout=stackLayout;horizontal=1;startSize=30;horizontalStack=0;resizeParent=1;resizeParentMax=0;resizeLast=0;collapsible=1;marginBottom=0;whiteSpace=wrap;html=1;" vertex="1" parent="1">
          <mxGeometry x="-100" y="240" width="160" height="82" as="geometry" />
        </mxCell>
        <mxCell id="TN3qxrfmex0seeHPzY-Y-26" value="- color: Integer [3]&#xa;" style="text;align=left;verticalAlign=top;spacingLeft=4;spacingRight=4;overflow=hidden;rotatable=0;points=[[0,0.5],[1,0.5]];portConstraint=eastwest;rounded=0;shadow=0;html=0;" vertex="1" parent="TN3qxrfmex0seeHPzY-Y-46">
          <mxGeometry y="30" width="160" height="26" as="geometry" />
        </mxCell>
        <mxCell id="TN3qxrfmex0seeHPzY-Y-24" value="- dimensions: Integer [3]" style="text;align=left;verticalAlign=top;spacingLeft=4;spacingRight=4;overflow=hidden;rotatable=0;points=[[0,0.5],[1,0.5]];portConstraint=eastwest;rounded=0;shadow=0;html=0;" vertex="1" parent="TN3qxrfmex0seeHPzY-Y-46">
          <mxGeometry y="56" width="160" height="26" as="geometry" />
        </mxCell>
        <mxCell id="TN3qxrfmex0seeHPzY-Y-47" style="edgeStyle=none;curved=1;rounded=0;orthogonalLoop=1;jettySize=auto;html=1;fontSize=12;startSize=8;endSize=8;dashed=1;entryX=0.5;entryY=1;entryDx=0;entryDy=0;" edge="1" parent="1" target="TN3qxrfmex0seeHPzY-Y-48">
          <mxGeometry relative="1" as="geometry">
            <mxPoint x="141" y="278" as="sourcePoint" />
            <mxPoint x="141" y="135" as="targetPoint" />
          </mxGeometry>
        </mxCell>
        <mxCell id="TN3qxrfmex0seeHPzY-Y-48" value="MobleDistribució" style="swimlane;fontStyle=0;childLayout=stackLayout;horizontal=1;startSize=30;horizontalStack=0;resizeParent=1;resizeParentMax=0;resizeLast=0;collapsible=1;marginBottom=0;whiteSpace=wrap;html=1;" vertex="1" parent="1">
          <mxGeometry x="70" y="90" width="140" height="60" as="geometry" />
        </mxCell>
        <mxCell id="TN3qxrfmex0seeHPzY-Y-49" value="- visible: bool" style="text;align=left;verticalAlign=top;spacingLeft=4;spacingRight=4;overflow=hidden;rotatable=0;points=[[0,0.5],[1,0.5]];portConstraint=eastwest;rounded=0;shadow=0;html=0;" vertex="1" parent="TN3qxrfmex0seeHPzY-Y-48">
          <mxGeometry y="30" width="140" height="30" as="geometry" />
        </mxCell>
        <mxCell id="TN3qxrfmex0seeHPzY-Y-50" value="*" style="edgeLabel;html=1;align=center;verticalAlign=middle;resizable=0;points=[];" connectable="0" vertex="1" parent="1">
          <mxGeometry x="222.6493773837101" y="683.8789294444709" as="geometry" />
        </mxCell>
        <mxCell id="TN3qxrfmex0seeHPzY-Y-51" value="Visita" style="swimlane;fontStyle=2;align=center;verticalAlign=top;childLayout=stackLayout;horizontal=1;startSize=26;horizontalStack=0;resizeParent=1;resizeLast=0;collapsible=1;marginBottom=0;rounded=0;shadow=0;strokeWidth=1;" vertex="1" parent="1">
          <mxGeometry x="200" y="690" width="160" height="50" as="geometry">
            <mxRectangle x="230" y="140" width="160" height="26" as="alternateBounds" />
          </mxGeometry>
        </mxCell>
      </root>
    </mxGraphModel>
  </diagram>
</mxfile>
